<svg width="36" height="48" viewBox="0 0 36 48" fill="none" xmlns="http://www.w3.org/2000/svg">
<rect x="0.5" y="0.5" width="35" height="47" rx="17.5" fill="white" fill-opacity="0.16" stroke="white"/>
<path d="M14.1928 25.4134L17.0595 28.2734C17.3093 28.5217 17.6472 28.6611 17.9995 28.6611C18.3517 28.6611 18.6897 28.5217 18.9395 28.2734L21.8061 25.4134C21.9303 25.2885 22 25.1195 22 24.9434C22 24.7673 21.9303 24.5983 21.8061 24.4734C21.7442 24.4109 21.6704 24.3613 21.5892 24.3275C21.508 24.2936 21.4208 24.2762 21.3328 24.2762C21.2448 24.2762 21.1577 24.2936 21.0764 24.3275C20.9952 24.3613 20.9214 24.4109 20.8595 24.4734L18.6661 26.6667V19.3334C18.6661 19.1566 18.5959 18.987 18.4709 18.862C18.3459 18.737 18.1763 18.6667 17.9995 18.6667C17.8227 18.6667 17.6531 18.737 17.5281 18.862C17.403 18.987 17.3328 19.1566 17.3328 19.3334V26.6667L15.1395 24.4734C15.0148 24.3479 14.8454 24.277 14.6685 24.2764C14.4916 24.2757 14.3217 24.3454 14.1961 24.4701C14.0706 24.5947 13.9997 24.7641 13.9991 24.9411C13.9985 25.118 14.0682 25.2879 14.1928 25.4134Z" fill="white"/>
</svg>
