<svg width="40" height="40" viewBox="0 0 40 40" fill="none" xmlns="http://www.w3.org/2000/svg">
<circle cx="20" cy="20" r="20" fill="black"/>
<path d="M24.9998 15.0001C24.8436 14.8439 24.6317 14.7561 24.4107 14.7561C24.1897 14.7561 23.9778 14.8439 23.8215 15.0001L19.9998 18.8218L16.1782 15.0001C16.0219 14.8439 15.81 14.7561 15.589 14.7561C15.368 14.7561 15.1561 14.8439 14.9998 15.0001C14.8436 15.1564 14.7559 15.3683 14.7559 15.5893C14.7559 15.8102 14.8436 16.0222 14.9998 16.1784L18.8215 20.0001L14.9998 23.8218C14.8436 23.978 14.7559 24.19 14.7559 24.4109C14.7559 24.6319 14.8436 24.8438 14.9998 25.0001C15.1561 25.1563 15.368 25.2441 15.589 25.2441C15.81 25.2441 16.0219 25.1563 16.1782 25.0001L19.9998 21.1784L23.8215 25.0001C23.9778 25.1563 24.1897 25.2441 24.4107 25.2441C24.6317 25.2441 24.8436 25.1563 24.9998 25.0001C25.1561 24.8438 25.2438 24.6319 25.2438 24.4109C25.2438 24.19 25.1561 23.978 24.9998 23.8218L21.1782 20.0001L24.9998 16.1784C25.1561 16.0222 25.2438 15.8102 25.2438 15.5893C25.2438 15.3683 25.1561 15.1564 24.9998 15.0001Z" fill="white"/>
</svg>
